<svg xmlns="http://www.w3.org/2000/svg" xmlns:xlink="http://www.w3.org/1999/xlink" version="1.1" width="3162.3083859332733" height="2491.433724075744" viewBox="0 0 3162.3083859332733 2491.433724075744">

<g transform="scale(8.115419296663662) translate(10, 10)">
	<defs id="SvgjsDefs1051"><linearGradient id="SvgjsLinearGradient1058"><stop id="SvgjsStop1059" stop-color="#905e26" offset="0"/><stop id="SvgjsStop1060" stop-color="#f5ec9b" offset="0.5"/><stop id="SvgjsStop1061" stop-color="#905e26" offset="1"/></linearGradient><linearGradient id="SvgjsLinearGradient1062"><stop id="SvgjsStop1063" stop-color="#905e26" offset="0"/><stop id="SvgjsStop1064" stop-color="#f5ec9b" offset="0.5"/><stop id="SvgjsStop1065" stop-color="#905e26" offset="1"/></linearGradient></defs><g id="SvgjsG1052" featureKey="rootContainer" transform="matrix(1,0,0,1,0,0)" fill="#fff"><path xmlns="http://www.w3.org/2000/svg" fill-rule="evenodd" d="M5,65 L185,0 L365, 65 L185, 10 z M5,207 L185,287 L365,202 L185, 277 z"/></g><g id="SvgjsG1053" featureKey="symbolFeature-0" transform="matrix(1.6912485577445406,0,0,1.6912485577445406,-42.885228981521834,59.219278184529735)" fill="#fff"><path xmlns="http://www.w3.org/2000/svg" d="M70.7 22.2l-6.6 52.4-13.5-12-8.5 15.1-4.1-2.3 8.5-15.1-17.1-5.4 41.3-32.7m0-4c-.9 0-1.8.3-2.5.9L26.9 51.8c-1.2.9-1.7 2.4-1.5 3.9.3 1.5 1.3 2.6 2.7 3.1l12.4 3.9-6.1 10.8c-1.1 1.9-.4 4.4 1.5 5.4l4.1 2.3c.6.3 1.3.5 2 .5.4 0 .7 0 1.1-.1 1-.3 1.9-1 2.4-1.9l6.1-10.8 9.8 8.6c.7.7 1.7 1 2.6 1 .5 0 1-.1 1.4-.3 1.4-.5 2.4-1.8 2.6-3.2l6.6-52.4c.2-1.6-.6-3.2-2-4-.5-.3-1.2-.4-1.9-.4z"/></g><g id="SvgjsG1054" featureKey="nameFeature-0" transform="matrix(1.5569050229079333,0,0,1.5569050229079333,100.5089519262278,105.36151312775957)" fill="#fff"><path d="M1.6 40 l0 -31.2 l8 0 l0 31.2 l-8 0 z M22.520000000000003 40 l0 -23.44 l-9.72 0 l0 -7.76 l27.44 0 l0 7.76 l-9.72 0 l0 23.44 l-8 0 z M43.440000000000005 28.36 c0 -6.16 5.24 -11.52 11.96 -11.52 c6.68 0 11.92 5.36 11.92 11.52 c0 0.84 -0.08 1.64 -0.24 2.4 l-16.68 0.04 c0.88 1.8 2.72 3.08 5 3.08 c1.56 0 2.96 -0.64 3.92 -1.6 l7.28 0 c-1.64 4.36 -6 7.64 -11.2 7.64 c-6.72 0 -11.96 -5.2 -11.96 -11.4 l0 -0.16 z M50.6 25.6 l-0.2 0.56 l10.12 0 l-0.32 -0.56 c-0.96 -1.6 -2.68 -2.72 -4.8 -2.72 s-3.88 1.12 -4.8 2.72 z M70.52 28.32 c0 6.28 5.32 11.68 12.08 11.68 c2.04 0 3.96 -0.44 5.72 -1.32 l0 1.32 l6.36 0 l-0.04 -23.12 l-6.48 0 l0 1.04 c-1.72 -0.84 -3.6 -1.24 -5.56 -1.24 c-6.76 0 -12.08 5.4 -12.08 11.64 z M86.6 32.28 c-1.08 1.04 -2.4 1.64 -4 1.64 c-3.16 0 -5.6 -2.64 -5.6 -5.6 c0 -2.92 2.44 -5.56 5.6 -5.56 c1.6 0 2.92 0.56 4 1.6 c0.68 0.68 1.56 2.12 1.56 2.96 l0 2.04 c0 0.84 -0.88 2.2 -1.56 2.92 z M97.92 32.96 c0 5.6 7.08 7.04 11.4 7.04 c4.28 0 10.68 -1.4 10.68 -6.8 c0 -1.64 -0.48 -2.44 -1.44 -3.64 c-0.8 -1.04 -2 -1.8 -3.12 -2.36 c-0.84 -0.44 -1.76 -0.8 -2.68 -1.08 c-0.92 -0.32 -1.84 -0.56 -2.72 -0.88 c-0.48 -0.16 -1.08 -0.32 -1.72 -0.56 c-0.6 -0.2 -1.2 -0.4 -1.56 -0.6 c-0.2 -0.12 -0.4 -0.24 -0.56 -0.36 s-0.2 -0.24 -0.2 -0.36 c0 -0.32 0.32 -0.6 0.96 -0.84 c0.64 -0.2 1.36 -0.28 1.8 -0.28 c0.68 0 1.6 0.16 2.36 0.48 c0.76 0.36 1.24 0.84 1.24 1.48 l0 1.04 l7.28 -0.04 l0 -1.12 c0 -2.36 -1.28 -4.08 -3.2 -5.36 c-2.36 -1.52 -5.04 -2 -7.8 -2 c-4.32 0 -10.52 1.8 -10.52 7.08 c0 0.92 0.24 1.8 0.72 2.6 c0.4 0.64 0.92 1.36 1.56 1.88 c1.32 1.04 3.32 1.88 4.92 2.4 c0.84 0.28 1.76 0.48 2.6 0.8 c0.48 0.16 1.12 0.32 1.76 0.52 c0.64 0.24 1.2 0.44 1.64 0.64 c0.44 0.24 0.72 0.52 0.72 0.84 c0 0.36 -0.28 0.6 -1 0.8 c-0.64 0.16 -1.4 0.16 -1.84 0.16 c-1 0 -2.28 -0.12 -3.04 -0.56 c-0.24 -0.12 -0.48 -0.32 -0.68 -0.52 s-0.32 -0.36 -0.32 -0.52 l-0.04 -1.4 l-7.24 0 l0 0.16 c0.04 0.44 0.04 0.88 0.04 1.36 z M123.19999999999999 12.399999999999999 c0 1.88 1.52 3.56 3.64 3.56 c2.08 0 3.68 -1.68 3.68 -3.56 c0 -1.84 -1.6 -3.64 -3.68 -3.64 c-2.12 0 -3.64 1.8 -3.64 3.64 z M123.6 16.84 l0 23.16 l6.48 0 l0 -23.16 l-6.48 0 z M132.04 28.36 c0 -6.16 5.24 -11.52 11.96 -11.52 c6.68 0 11.92 5.36 11.92 11.52 c0 0.84 -0.08 1.64 -0.24 2.4 l-16.68 0.04 c0.88 1.8 2.72 3.08 5 3.08 c1.56 0 2.96 -0.64 3.92 -1.6 l7.28 0 c-1.64 4.36 -6 7.64 -11.2 7.64 c-6.72 0 -11.96 -5.2 -11.96 -11.4 l0 -0.16 z M139.2 25.6 l-0.2 0.56 l10.12 0 l-0.32 -0.56 c-0.96 -1.6 -2.68 -2.72 -4.8 -2.72 s-3.88 1.12 -4.8 2.72 z M159.12 16.84 l0 23.16 l6.36 0 l0.08 -12.08 c0.04 -2.96 2.44 -5.44 5.6 -5.44 l1.68 0 l0.04 -6.08 l-1.72 0 c-1.96 0 -3.88 0.4 -5.6 1.28 l0 -0.84 l-6.44 0 z"/></g>
</g>
</svg>